<svg height="512" viewBox="0 0 512 512" width="512" xmlns="http://www.w3.org/2000/svg"><g><g><rect fill="#ff9811" height="360" rx="20" width="480" x="16" y="72"/><g fill="#e0e0e2"><path d="m464 296v-192"/><path d="m440 328v-224"/><path d="m400 328v-224"/><path d="m376 328v-224"/><path d="m352 328v-224"/></g></g><g><path d="m476 64h-440a28.032 28.032 0 0 0 -28 28v320a28.032 28.032 0 0 0 28 28h440a28.032 28.032 0 0 0 28-28v-320a28.032 28.032 0 0 0 -28-28zm12 348a12.013 12.013 0 0 1 -12 12h-440a12.013 12.013 0 0 1 -12-12v-320a12.013 12.013 0 0 1 12-12h440a12.013 12.013 0 0 1 12 12z"/><path d="m48 336a8 8 0 0 0 8-8v-224a8 8 0 0 0 -16 0v224a8 8 0 0 0 8 8z"/><path d="m72 336a8 8 0 0 0 8-8v-224a8 8 0 0 0 -16 0v224a8 8 0 0 0 8 8z"/><path d="m112 336a8 8 0 0 0 8-8v-224a8 8 0 0 0 -16 0v224a8 8 0 0 0 8 8z"/><path d="m136 336a8 8 0 0 0 8-8v-224a8 8 0 0 0 -16 0v224a8 8 0 0 0 8 8z"/><path d="m168 104a8 8 0 0 0 -16 0v224a8 8 0 0 0 16 0z"/><path d="m200 336a8 8 0 0 0 8-8v-224a8 8 0 0 0 -16 0v224a8 8 0 0 0 8 8z"/><path d="m232 104a8 8 0 0 0 -16 0v224a8 8 0 0 0 16 0z"/><path d="m264 336a8 8 0 0 0 8-8v-224a8 8 0 0 0 -16 0v224a8 8 0 0 0 8 8z"/><path d="m296 104a8 8 0 0 0 -16 0v224a8 8 0 0 0 16 0z"/><path d="m312 336a8 8 0 0 0 8-8v-224a8 8 0 0 0 -16 0v224a8 8 0 0 0 8 8z"/><path d="m464 96a8 8 0 0 0 -8 8v192a8 8 0 0 0 16 0v-192a8 8 0 0 0 -8-8z"/><path d="m440 336a8 8 0 0 0 8-8v-224a8 8 0 0 0 -16 0v224a8 8 0 0 0 8 8z"/><path d="m400 96a8 8 0 0 0 -8 8v224a8 8 0 0 0 16 0v-224a8 8 0 0 0 -8-8z"/><path d="m376 336a8 8 0 0 0 8-8v-224a8 8 0 0 0 -16 0v224a8 8 0 0 0 8 8z"/><path d="m360 104a8 8 0 0 0 -16 0v224a8 8 0 0 0 16 0z"/><path d="m136 352h-16a16.019 16.019 0 0 0 -16 16v32a16.019 16.019 0 0 0 16 16h16a16.019 16.019 0 0 0 16-16v-32a16.019 16.019 0 0 0 -16-16zm0 48h-16v-32h16l.01 32z"/><path d="m72 352h-16a16.019 16.019 0 0 0 -16 16v32a16.019 16.019 0 0 0 16 16h16a16.019 16.019 0 0 0 16-16v-32a16.019 16.019 0 0 0 -16-16zm0 48h-16v-32h16l.01 32z"/><path d="m264 352h-16a16.019 16.019 0 0 0 -16 16v32a16.019 16.019 0 0 0 16 16h16a16.019 16.019 0 0 0 16-16v-32a16.019 16.019 0 0 0 -16-16zm0 48h-16v-32h16l.01 32z"/><path d="m200 352h-16a16.019 16.019 0 0 0 -16 16v32a16.019 16.019 0 0 0 16 16h16a16.019 16.019 0 0 0 16-16v-32a16.019 16.019 0 0 0 -16-16zm0 48h-16v-32h16l.01 32z"/><path d="m392 352h-16a16.019 16.019 0 0 0 -16 16v32a16.019 16.019 0 0 0 16 16h16a16.019 16.019 0 0 0 16-16v-32a16.019 16.019 0 0 0 -16-16zm0 48h-16v-32h16l.01 32z"/><path d="m328 352h-16a16.019 16.019 0 0 0 -16 16v32a16.019 16.019 0 0 0 16 16h16a16.019 16.019 0 0 0 16-16v-32a16.019 16.019 0 0 0 -16-16zm0 48h-16v-32h16l.01 32z"/><path d="m456 352h-16a16.019 16.019 0 0 0 -16 16v32a16.019 16.019 0 0 0 16 16h16a16.019 16.019 0 0 0 16-16v-32a16.019 16.019 0 0 0 -16-16zm0 48h-16v-32h16l.01 32z"/><path d="m464 312a8 8 0 0 0 -8 8v8a8 8 0 0 0 16 0v-8a8 8 0 0 0 -8-8z"/></g></g></svg>