<svg height="512" viewBox="0 0 64 64" width="512" xmlns="http://www.w3.org/2000/svg"><g id="Box"><path d="m36 3 2 12h23l-6-12z" fill="#a97c50"/><path d="m28 3h-19l-6 12h23z" fill="#a97c50"/><path d="m3 15h58v46h-58z" fill="#cba57c"/><path d="m59 15v30a8 8 0 0 1 -8 8h-48v8h58v-46z" fill="#c49a6c"/><path d="m38 15-2-12h-8l-2 12z" fill="#ffa733"/><path d="m26 35 6.039-5 5.961 5v-20h-12z" fill="#ffb655"/><path d="m9 43h20v12h-20z" fill="#ffeb99"/><g fill="#231f20"><path d="m61.9 14.553-6-12a1 1 0 0 0 -.9-.553h-46a1 1 0 0 0 -.895.553l-6 12a1 1 0 0 0 -.105.447v46a1 1 0 0 0 1 1h58a1 1 0 0 0 1-1v-46a1 1 0 0 0 -.1-.447zm-2.518-.553h-20.535l-1.667-10h17.2zm-32.382 2h10v16.856l-4.319-3.622a1 1 0 0 0 -1.28 0l-4.401 3.64zm8.153-12 1.666 10h-9.638l1.666-10zm-25.535 0h17.2l-1.665 10h-20.535zm-5.618 56v-44h21v19a1 1 0 0 0 1.638.77l5.4-4.468 5.322 4.464a1 1 0 0 0 1.64-.766v-19h21v44z"/><path d="m29 42h-20a1 1 0 0 0 -1 1v12a1 1 0 0 0 1 1h20a1 1 0 0 0 1-1v-12a1 1 0 0 0 -1-1zm-1 12h-18v-10h18z"/><path d="m18 48h7a1 1 0 0 0 0-2h-7a1 1 0 0 0 0 2z"/><path d="m18 52h7a1 1 0 0 0 0-2h-7a1 1 0 0 0 0 2z"/><path d="m13 48h1a1 1 0 0 0 0-2h-1a1 1 0 0 0 0 2z"/><path d="m13 52h1a1 1 0 0 0 0-2h-1a1 1 0 0 0 0 2z"/></g></g></svg>