<svg height="512" viewBox="0 0 64 64" width="512" xmlns="http://www.w3.org/2000/svg"><g id="Boxes"><path d="m4 37h28v24h-28z" fill="#b38b63"/><path d="m32 37h28v24h-28z" fill="#cba57c"/><path d="m18 13h28v24h-28z" fill="#cba57c"/><path d="m44 13v14a6 6 0 0 1 -6 6h-20v4h28v-24z" fill="#c49a6c"/><path d="m30 37v14a6 6 0 0 1 -6 6h-20v4h28v-24z" fill="#a97c50"/><path d="m58 37v14a6 6 0 0 1 -6 6h-20v4h28v-24z" fill="#c49a6c"/><g fill="#a97c50"><path d="m60 37-4-6h-8l1 6z"/><path d="m30 7h-8l-4 6h11z"/><path d="m16 31h-8l-4 6h11z"/></g><path d="m49 37-1-6h-2v6z" fill="#ffa733"/><path d="m46 13-4-6h-8l1 6z" fill="#a97c50"/><path d="m18 37v-6h-2l-1 6z" fill="#ee8700"/><path d="m46 45 3 2v-10h-3-3v10z" fill="#ffb655"/><path d="m15 37v10l3-2 3 2v-10h-3z" fill="#ff9811"/><path d="m29 23 3-2 3 2v-10h-6z" fill="#ffb655"/><path d="m35 13-1-6h-4l-1 6z" fill="#ffa733"/><path d="m60.832 36.445-4-6a1 1 0 0 0 -.832-.445h-9v-17a1.77 1.77 0 0 0 -.168-.555l-4-6a1 1 0 0 0 -.832-.445h-20a1 1 0 0 0 -.832.445l-4 6a.511.511 0 0 0 -.062.125.986.986 0 0 0 -.106.43v17h-9a1 1 0 0 0 -.832.445l-4 6a1.786 1.786 0 0 0 -.168.555v24a1 1 0 0 0 1 1h56a1 1 0 0 0 1-1v-24a1.786 1.786 0 0 0 -.168-.555zm-2.7-.445h-8.285l-.667-4h6.285zm-14.132 2h4v7.131l-1.445-.963a1 1 0 0 0 -1.11 0l-1.445.963zm3.153-6 .666 4h-.819v-4zm-5.688-24 2.667 4h-8.285l-.667-4zm-10.618 0h2.306l.666 4h-3.638zm-.847 6h4v7.131l-1.445-.963a1 1 0 0 0 -1.11 0l-1.445.963zm-7.465-6h6.285l-.667 4h-8.285zm-3.535 6h9v9a1 1 0 0 0 1.555.832l2.445-1.632 2.445 1.63a1 1 0 0 0 1.555-.83v-9h9v22h-26zm-3 24h4v7.131l-1.445-.963a1 1 0 0 0 -1.11 0l-1.445.963zm1-6v4h-.819l.666-4zm-8.465 0h6.285l-.667 4h-8.285zm-3.535 6h9v9a1 1 0 0 0 1.555.832l2.445-1.632 2.445 1.63a1 1 0 0 0 1.555-.83v-9h9v22h-26zm54 22h-26v-22h9v9a1 1 0 0 0 1.555.832l2.445-1.632 2.445 1.63a1 1 0 0 0 1.555-.83v-9h9z" fill="#231f20"/></g></svg>