<svg id="Capa_1" enable-background="new 0 0 512 512" height="512" viewBox="0 0 512 512" width="512" xmlns="http://www.w3.org/2000/svg"><path d="m444.5 412.488h-30l60 92h30v-32c0-33-27-60-60-60z" fill="#1a64b6"/><path d="m414.5 412.488h-112.5l-116 46 70 46h218.5v-32c0-33-27-60-60-60z" fill="#1e8aff"/><path d="m210 412.488h-72.5l20 92h98.5v-82z" fill="#1eb1ee"/><path d="m210 412.488 46 47 46-47z" fill="#fff"/><path d="m136 192.488c-19.33 0-35 15.67-35 35s15.67 35 35 35h120v-70z" fill="#ffeac3"/><path d="m376 192.488h-120v70h120c19.33 0 35-15.67 35-35s-15.67-35-35-35z" fill="#ffd17e"/><path d="m256 177.488v205c66.274 0 120-53.726 120-120v-85z" fill="#ffd17e"/><path d="m136 177.488v85c0 66.274 53.726 120 120 120 49.706 0 90-53.726 90-120v-85z" fill="#ffeac3"/><path d="m256 22.488v150h135v-15c0-74.559-60.441-135-135-135z" fill="#ff4e51"/><path d="m256 22.488c-74.558 0-135 60.441-135 135v15h240v-15c0-74.559-47.01-135-105-135z" fill="#ff7149"/><path d="m218.5 12.214v160.274h75v-160.274c-11.986-3.085-24.551-4.726-37.5-4.726s-25.514 1.641-37.5 4.726z" fill="#ff9441"/><path d="m396 162.488h-30v30h30c8.284 0 15-6.716 15-15s-6.716-15-15-15z" fill="#ff2b59"/><g fill="#ff4e51"><path d="m381 177.488c0-8.284-6.716-15-15-15h-250c-8.284 0-15 6.716-15 15s6.716 15 15 15h250c8.284 0 15-6.716 15-15z"/><path d="m22.5 397.488c-8.284 0-15 6.716-15 15v92h30l15-46-15-46c0-8.284-6.716-15-15-15z"/><path d="m142.5 397.488c-8.284 0-15 6.716-15 15l-15 46 15 46h30v-92c0-8.284-6.716-15-15-15z"/></g><path d="m112.5 397.488c-8.284 0-15 6.716-15 15l-15 46 15 46h30v-92c0-8.284-6.716-15-15-15z" fill="#ff7149"/><path d="m82.5 397.488c-8.284 0-15 6.716-15 15l-15 46 15 46h30v-92c0-8.284-6.716-15-15-15z" fill="#ff4e51"/><path d="m37.5 350.488h30v154h-30z" fill="#ff7149"/><path d="m52.5 367.488c16.569 0 30-13.432 30-30v-30h-60v30c0 16.568 13.431 30 30 30z" fill="#ff4e51"/><path d="m223.5 227.488c0-4.143-3.358-7.5-7.5-7.5h-27c-4.142 0-7.5 3.357-7.5 7.5s3.358 7.5 7.5 7.5h19.5c0 4.143 3.358 7.5 7.5 7.5s7.5-3.357 7.5-7.5z"/><path d="m323 219.988h-27c-4.143 0-7.5 3.357-7.5 7.5v7.5c0 4.143 3.357 7.5 7.5 7.5s7.5-3.357 7.5-7.5h19.5c4.143 0 7.5-3.357 7.5-7.5s-3.357-7.5-7.5-7.5z"/><path d="m128.686 269.345c3.575 67.128 59.311 120.643 127.314 120.643s123.739-53.515 127.314-120.643c19.96-3.479 35.186-20.917 35.186-41.857 0-11.662-4.724-22.24-12.356-29.927 7.323-3.716 12.356-11.316 12.356-20.073 0-11.569-8.779-21.124-20.024-22.361-.491-30.656-10.54-59.666-29.148-84.035-17.314-22.677-41.414-39.865-68.328-48.842v-10.036c0-3.422-2.316-6.41-5.631-7.264-25.586-6.584-53.152-6.584-78.739 0-3.314.854-5.63 3.842-5.63 7.264v10.036c-26.913 8.977-51.014 26.166-68.329 48.843-18.607 24.369-28.657 53.379-29.148 84.035-11.245 1.237-20.024 10.792-20.024 22.361 0 8.758 5.033 16.358 12.356 20.074-7.632 7.687-12.356 18.264-12.356 29.926.001 20.939 15.227 38.377 35.187 41.856zm254.814-15.405v-11.452c0-4.143-3.357-7.5-7.5-7.5s-7.5 3.357-7.5 7.5v20c0 62.032-50.468 112.5-112.5 112.5-62.033 0-112.5-50.468-112.5-112.5v-20c0-4.143-3.358-7.5-7.5-7.5s-7.5 3.357-7.5 7.5v11.452c-11.528-3.274-20-13.889-20-26.452 0-12.564 8.47-23.188 20-26.461v11.461c0 4.143 3.358 7.5 7.5 7.5s7.5-3.357 7.5-7.5v-12.5h225v12.5c0 4.143 3.357 7.5 7.5 7.5s7.5-3.357 7.5-7.5v-11.461c11.53 3.272 20 13.896 20 26.461 0 12.563-8.472 23.178-20 26.452zm-.052-98.952h-82.448v-116.817c48.269 18.237 81.415 64.73 82.448 116.817zm-172.448-116.817v39.317c0 4.143 3.358 7.5 7.5 7.5s7.5-3.357 7.5-7.5v-59.338c19.622-4.199 40.377-4.199 60 0v136.838h-60v-47.5c0-4.143-3.358-7.5-7.5-7.5s-7.5 3.357-7.5 7.5v47.5h-82.448c1.033-52.086 34.178-98.58 82.448-116.817zm-95 131.817h280c4.136 0 7.5 3.364 7.5 7.5s-3.364 7.5-7.5 7.5h-280c-4.136 0-7.5-3.364-7.5-7.5s3.364-7.5 7.5-7.5z"/><path d="m275.696 276.829c-5.261 5.262-12.256 8.159-19.696 8.159s-14.436-2.897-19.697-8.158c-2.928-2.93-7.677-2.929-10.606-.001-2.929 2.93-2.929 7.678 0 10.606 8.094 8.095 18.856 12.553 30.303 12.553 11.446 0 22.209-4.458 30.304-12.552 2.929-2.93 2.929-7.678 0-10.607-2.93-2.928-7.678-2.928-10.608 0z"/><path d="m444.5 404.988h-280.79c-3.096-8.729-11.432-15-21.21-15-5.758 0-11.016 2.177-15 5.748-3.984-3.571-9.242-5.748-15-5.748s-11.016 2.177-15 5.748c-3.984-3.571-9.242-5.748-15-5.748-2.629 0-5.153.458-7.5 1.29v-23.801c9.348-7.031 15-18.157 15-29.989v-30c0-4.143-3.358-7.5-7.5-7.5h-7.5v-22.5c0-4.143-3.358-7.5-7.5-7.5s-7.5 3.357-7.5 7.5v22.5h-15v-22.5c0-4.143-3.358-7.5-7.5-7.5s-7.5 3.357-7.5 7.5v22.5h-7.5c-4.142 0-7.5 3.357-7.5 7.5v30c0 11.832 5.652 22.958 15 29.989v23.801c-2.347-.833-4.871-1.29-7.5-1.29-12.407 0-22.5 10.094-22.5 22.5v92c0 4.143 3.358 7.5 7.5 7.5h497c4.143 0 7.5-3.357 7.5-7.5v-32c0-37.22-30.28-67.5-67.5-67.5zm-196 92h-83.5v-77h41.846l41.654 42.56zm7.5-48.223-28.165-28.777h56.33zm-113.5-43.777c4.136 0 7.5 3.364 7.5 7.5v84.5h-15v-84.5c0-4.136 3.364-7.5 7.5-7.5zm-30 0c4.136 0 7.5 3.364 7.5 7.5v84.5h-15v-84.5c0-4.136 3.364-7.5 7.5-7.5zm-30 0c4.136 0 7.5 3.364 7.5 7.5v84.5h-15v-84.5c0-4.136 3.364-7.5 7.5-7.5zm-52.5-90h45v22.5c0 8.001-4.313 15.467-11.256 19.485-2.317 1.341-3.744 3.814-3.744 6.491v133.523h-15v-133.522c0-2.677-1.427-5.15-3.744-6.491-6.943-4.019-11.256-11.485-11.256-19.486zm-15 97.5c0-4.136 3.364-7.5 7.5-7.5s7.5 3.364 7.5 7.5v84.5h-15zm482 84.5h-233.5v-34.44l41.654-42.56h139.346c28.948 0 52.5 23.552 52.5 52.5z"/></svg>