<?xml version="1.0" encoding="iso-8859-1"?>
<!-- Generator: Adobe Illustrator 19.0.0, SVG Export Plug-In . SVG Version: 6.00 Build 0)  -->
<svg version="1.1" id="Capa_1" xmlns="http://www.w3.org/2000/svg" xmlns:xlink="http://www.w3.org/1999/xlink" x="0px" y="0px"
	 viewBox="0 0 512 512" style="enable-background:new 0 0 512 512;" xml:space="preserve">
<path style="fill:#F2F2F2;" d="M443.733,503.467H68.267V8.533H281.6l162.133,162.133V503.467z"/>
<path style="fill:#CCCCCC;" d="M281.6,8.533v162.133h162.133L281.6,8.533z"/>
<path style="fill:#39B54A;" d="M161.135,260.531c-54.101,28.749-74.658,95.906-45.918,150.016s95.906,74.658,150.016,45.918
	c20.412-10.846,36.932-27.802,47.241-48.495l-99.14-49.57L161.135,260.531z"/>
<path style="fill:#F8CF26;" d="M319.241,325.308c-18.278-58.479-80.503-91.068-138.974-72.789
	c-6.613,2.065-13.013,4.745-19.132,8.013l52.198,97.869L319.241,325.308z"/>
<path style="fill:#ED1C24;" d="M319.241,325.308L213.333,358.4l99.14,49.57C325.367,382.336,327.791,352.7,319.241,325.308
	L319.241,325.308z"/>
<path d="M452.156,170.129c-0.043-0.751-0.188-1.485-0.435-2.193c-0.094-0.273-0.162-0.538-0.282-0.802
	c-0.418-0.93-0.99-1.775-1.707-2.5L287.599,2.5c-0.725-0.717-1.579-1.297-2.509-1.707c-0.256-0.111-0.503-0.179-0.768-0.273
	c-0.725-0.256-1.493-0.401-2.261-0.444C281.924,0.085,281.771,0,281.6,0H68.267c-4.71,0-8.533,3.823-8.533,8.533v494.933
	c0,4.71,3.823,8.533,8.533,8.533h375.467c4.71,0,8.533-3.823,8.533-8.533v-332.8C452.267,170.479,452.173,170.317,452.156,170.129z
	 M423.134,162.133H290.133V29.133L423.134,162.133z M76.8,494.933V17.067h196.267v153.6c0,4.71,3.823,8.533,8.533,8.533h153.6
	v315.733H76.8z"/>
<path d="M213.333,238.933c-65.98-0.06-119.518,53.376-119.578,119.356s53.376,119.518,119.356,119.578
	c45.295,0.043,86.724-25.54,106.974-66.057c8.371-16.563,12.723-34.859,12.715-53.41c0.06-65.92-53.325-119.407-119.245-119.467
	C213.478,238.933,213.41,238.933,213.333,238.933L213.333,238.933z M313.293,336.102c1.621,7.322,2.441,14.797,2.441,22.298
	c0.017,13.013-2.492,25.907-7.381,37.973l-72.269-36.139l11.58-3.627L313.293,336.102z M213.333,256
	c41.702-0.145,79.292,25.122,94.891,63.804L217.54,348.16l-44.698-83.789C185.634,258.859,199.407,256.017,213.333,256L213.333,256z
	 M213.333,460.8c-56.55-0.017-102.383-45.875-102.366-102.434c0.009-34.748,17.638-67.115,46.822-85.973l48.017,90.027l0.06,0.085
	c0.137,0.247,0.333,0.444,0.486,0.674c0.282,0.435,0.597,0.853,0.947,1.237l0.111,0.119c0.188,0.154,0.393,0.299,0.597,0.435
	c0.393,0.324,0.819,0.606,1.271,0.853c0.085,0.043,0.145,0.119,0.239,0.171l91.187,45.594
	C282.249,442.197,249.079,460.877,213.333,460.8L213.333,460.8z"/>
<path d="M93.867,34.133H230.4V51.2H93.867V34.133z"/>
<path d="M93.867,68.267H230.4v17.067H93.867V68.267z"/>
<path d="M93.867,102.4H230.4v17.067H93.867V102.4z"/>
<path d="M93.867,136.533h76.8V153.6h-76.8V136.533z"/>
<path d="M93.867,170.667h76.8v17.067h-76.8V170.667z"/>
<path d="M341.333,213.333h76.8V230.4h-76.8V213.333z"/>
<path d="M341.333,247.467h76.8v17.067h-76.8V247.467z"/>
<path d="M392.533,281.6h25.6v17.067h-25.6V281.6z"/>
<path d="M349.867,435.2h68.267v17.067h-68.267V435.2z"/>
<g>
</g>
<g>
</g>
<g>
</g>
<g>
</g>
<g>
</g>
<g>
</g>
<g>
</g>
<g>
</g>
<g>
</g>
<g>
</g>
<g>
</g>
<g>
</g>
<g>
</g>
<g>
</g>
<g>
</g>
</svg>
