<svg id="Layer_1" enable-background="new 0 0 512 512" height="512" viewBox="0 0 512 512" width="512" xmlns="http://www.w3.org/2000/svg"><path d="m480 218.92c0 133.917-93.626 249.131-224 277.08-130.66-28-224-143.46-224-277.08v-154.93c77.618 0 150.973-14.284 224-47.99 116.002 53.53 219.656 47.493 222.19 48z" fill="#6994ff"/><path d="m480 218.92c0 59.91-18.77 116.17-51.25 162.54-78.141 77.995-202.872 77.217-279.845 1.64-52.844-51.885-84.905-123.959-84.905-202.27v-117.52c66.35-3.37 131.53-19.4 192-47.31 69.851 32.233 143.307 47.99 222.14 47.99.101.02-.036-7.36 1.86 154.93z" fill="#80aaff"/><path d="m176 224h160v128h-160z" fill="#efd66c"/><path d="m336 328h-56c-57.438 0-104-46.562-104-104 0-.1-3.517 0 160 0z" fill="#ffe773"/><path d="m252.648 511.645c-137.48-29.461-236.648-151.169-236.648-292.725v-154.93c0-8.836 7.164-16 16-16 77.745 0 149.382-15.173 217.295-46.518 4.255-1.964 9.155-1.964 13.41 0 65.212 30.099 137.174 46.518 215.435 46.518 8.772 0 15.946 7.084 16.049 15.823 1.119 95.773 1.811 154.948 1.811 155.107 0 140.598-98.232 263.063-236.647 292.725-2.207.473-4.496.474-6.705 0zm-204.648-431.76v139.035c0 124.095 87.269 233.177 208 260.694 120.701-27.51 207.957-136.545 208-260.603l-1.626-139.161c-70.769-1.634-141.712-17.534-206.374-46.285-65.153 28.969-136.695 44.892-208 46.32z"/><path d="m336 208h-16v-24c0-35.29-28.71-64-64-64s-64 28.71-64 64v24h-16c-8.836 0-16 7.164-16 16v128c0 8.836 7.164 16 16 16h160c8.836 0 16-7.164 16-16v-128c0-8.836-7.163-16-16-16zm-112-24c0-17.645 14.355-32 32-32s32 14.355 32 32v24h-64zm96 152h-128v-96h128z"/><path d="m256 264c-8.836 0-16 7.164-16 16v16c0 8.836 7.164 16 16 16s16-7.164 16-16v-16c0-8.836-7.163-16-16-16z"/></svg>