<?xml version="1.0" encoding="iso-8859-1"?>
<!-- Generator: Adobe Illustrator 19.0.0, SVG Export Plug-In . SVG Version: 6.00 Build 0)  -->
<svg version="1.1" id="Capa_1" xmlns="http://www.w3.org/2000/svg" xmlns:xlink="http://www.w3.org/1999/xlink" x="0px" y="0px"
	 viewBox="0 0 512.003 512.003" style="enable-background:new 0 0 512.003 512.003;" xml:space="preserve">
<path style="fill:#DBD9DC;" d="M393.859,291.829l-49.683-19.546H167.819l-49.683,19.546c-19.05,7.495-31.269,26.227-30.449,46.682
	L94.335,504.5H417.66l6.648-165.989C425.128,318.056,412.909,299.324,393.859,291.829z"/>
<polygon style="fill:#5D5360;" points="239.965,304.096 234.037,504.5 277.959,504.5 272.03,304.096 "/>
<rect x="199.888" y="207.901" style="fill:#FAD7A5;" width="112.231" height="96.191"/>
<path style="fill:#F0C891;" d="M199.884,247.525c16.208,10.39,35.431,16.49,56.113,16.49c20.682,0,39.904-6.1,56.113-16.49v-39.623
	H199.884V247.525z"/>
<path style="fill:#AF876E;" d="M255.998,7.749c-40.022,2.163-62.793,24.048-62.793,24.048s-33.401,0-33.401,40.081
	c0,32.064,8.016,63.877,8.016,63.877h184.372C368.223,47.579,330.147,3.741,255.998,7.749z"/>
<path style="fill:#A07B64;" d="M223.933,103.692c-48.097-40.081-30.728-71.894-30.728-71.894s-33.401,0-33.401,40.081
	c0,32.064,8.016,63.877,8.016,63.877h56.113L223.933,103.692L223.933,103.692z"/>
<path style="fill:#FFE1B4;" d="M344.175,127.741h-8.016l-13.361-24.382c-65.956,13.741-98.866-7.682-98.866-7.682l-40.081,40.081
	l-16.304-8.016c-0.004,0-0.008,0.002-0.012,0.002c-0.874,0.016-1.766,0.108-2.675,0.283c-7.808,1.502-13.073,8.963-13.073,16.915
	v5.809c0,7.668,4.911,14.902,12.379,16.645c1.681,0.392,3.316,0.503,4.882,0.378c3.986-0.318,7.465,2.582,8.183,6.516
	c6.815,37.35,39.447,65.678,78.765,65.678s71.95-28.328,78.765-65.678c0.691-3.788,3.961-6.547,7.76-6.467h1.652
	c8.854,0,16.032-7.178,16.032-16.032v-8.016C360.207,134.919,353.029,127.741,344.175,127.741z"/>
<g>
	<path style="fill:#EDEBED;" d="M129.684,346.373l-34.876-34.875c-4.866,7.939-7.512,17.259-7.121,27.013L94.335,504.5l0,0h49.436
		V380.383C143.771,367.627,138.704,355.393,129.684,346.373z"/>
	<path style="fill:#EDEBED;" d="M382.313,346.373l34.875-34.875c4.866,7.939,7.512,17.259,7.121,27.013L417.661,504.5l0,0h-49.436
		V380.383C368.224,367.627,373.292,355.393,382.313,346.373z"/>
</g>
<polygon style="fill:#4B3F4E;" points="273.216,344.177 272.03,304.096 239.965,304.096 238.779,344.177 "/>
<g>
	<path style="fill:#EDEBED;" d="M255.998,304.348l-64.129-56.113l-24.048,24.048l37.249,55.873
		c5.612,8.418,17.522,9.597,24.676,2.443L255.998,304.348z"/>
	<path style="fill:#EDEBED;" d="M255.998,304.348l64.129-56.113l24.048,24.048l-37.249,55.873
		c-5.612,8.418-17.522,9.597-24.676,2.443L255.998,304.348z"/>
</g>
<path style="fill:#FAD7A5;" d="M207.901,159.805v-48.097l-24.048,24.048l-16.304-8.016c-0.004,0-0.008,0.002-0.012,0.002
	c-0.875,0.016-1.767,0.108-2.675,0.282c-7.809,1.502-13.073,8.963-13.073,16.915v5.809c0,7.668,4.911,14.902,12.378,16.644
	c1.681,0.392,3.317,0.503,4.883,0.379c3.986-0.318,7.465,2.582,8.182,6.516c6.815,37.35,39.447,65.678,78.766,65.678
	c5.45,0,10.752-0.595,15.895-1.632C235.372,230.854,207.901,198.538,207.901,159.805z"/>
<path d="M207.901,376.757h-32.064c-4.142,0-7.5,3.358-7.5,7.5c0,4.143,3.358,7.5,7.5,7.5h32.064c4.142,0,7.5-3.357,7.5-7.5
	C215.401,380.116,212.043,376.757,207.901,376.757z"/>
<path d="M396.248,284.958l-46.869-18.079L325.43,242.93c-1.59-1.59-3.726-2.32-5.819-2.176v-20.429
	c11.319-11.955,19.358-27.167,22.51-44.331c0.042-0.154,0.293-0.407,0.466-0.477c2.093,0.144,4.211,0.001,6.3-0.426
	c10.905-2.232,18.821-12.369,18.821-24.103v-6.247c0-7.005-2.929-13.417-7.664-17.89c7.71-41.146,1.607-74.633-17.723-96.956
	C323.743,8.445,293.752-1.803,255.593,0.26c-35.82,1.936-58.699,18.619-65.494,24.287c-9.546,1.191-37.794,8.042-37.794,47.331
	c0,22.229,3.676,40.634,6.168,50.562c-8.454,3.709-14.184,12.394-14.184,22.396v6.153c0,11.733,7.916,21.87,18.821,24.103
	c2.089,0.428,4.209,0.571,6.3,0.426c0.172,0.07,0.424,0.322,0.464,0.469c3.153,17.167,11.193,32.381,22.512,44.337v20.43
	c-2.094-0.144-4.23,0.587-5.819,2.176l-23.948,23.948l-46.869,18.079c-22.213,8.568-36.498,30.308-35.544,54.097l6.638,165.746
	c0.162,4.037,3.485,7.2,7.489,7.2c0.102,0,0.204-0.002,0.306-0.006c4.139-0.166,7.359-3.655,7.194-7.794l-6.638-165.746
	c-0.195-4.861,0.483-9.604,1.914-14.053l27.275,27.275c7.668,7.668,11.891,17.863,11.891,28.707v124.118c0,4.142,3.358,7.5,7.5,7.5
	s7.5-3.358,7.5-7.5v-124.12c0-14.85-5.783-28.812-16.284-39.313l-30.334-30.333c4.314-5.144,9.929-9.251,16.493-11.783l44.1-17.01
	l33.582,50.374c3.926,5.89,10.218,9.667,17.262,10.364c0.784,0.078,1.566,0.116,2.344,0.116c4.746,0,9.338-1.432,13.226-4.088
	l-7.204,165.465c-0.18,4.138,3.028,7.639,7.167,7.819c0.111,0.005,0.222,0.007,0.332,0.007c3.992,0,7.312-3.146,7.487-7.174
	l6.657-152.898h19.798l6.657,152.898c0.175,4.027,3.495,7.174,7.487,7.174c0.11,0,0.221-0.002,0.332-0.007
	c4.138-0.181,7.347-3.681,7.167-7.819L280.34,338.71c3.887,2.657,8.479,4.088,13.226,4.088c0.778,0,1.561-0.039,2.344-0.116
	c7.043-0.697,13.335-4.475,17.262-10.364l33.582-50.374l44.1,17.01c6.564,2.532,12.179,6.64,16.493,11.783l-30.334,30.333
	c-10.501,10.501-16.284,24.463-16.284,39.313v124.118c0,4.142,3.358,7.5,7.5,7.5s7.5-3.358,7.5-7.5V380.383
	c0-10.844,4.223-21.039,11.891-28.707l27.275-27.275c1.431,4.449,2.109,9.192,1.914,14.053L410.172,504.2
	c-0.166,4.139,3.055,7.628,7.194,7.794c0.103,0.004,0.204,0.006,0.306,0.006c4.003,0,7.327-3.163,7.489-7.2l6.638-165.745
	C432.746,315.266,418.461,293.526,396.248,284.958z M255.998,294.382l-48.613-42.536v-18.874
	c13.997,9.349,30.76,14.747,48.613,14.747s34.616-5.398,48.613-14.746v18.873L255.998,294.382z M168.403,160.551
	c-0.748,0.055-1.517,0.002-2.287-0.155c-3.894-0.797-6.83-4.841-6.83-9.407v-6.153c0-4.552,2.979-8.508,6.93-9.202
	c3.256-0.571,6.384,0.628,8.363,3.208c1.436,1.873,3.348,3.211,5.53,3.871c3.196,0.965,6.721,0.399,9.429-1.513
	c6.56-4.63,12.121-10.504,16.527-17.458c2.217-3.499,1.179-8.132-2.32-10.35c-3.499-2.217-8.133-1.178-10.35,2.32
	c-2.681,4.23-5.911,7.926-9.629,11.024c-2.88-2.662-6.357-4.527-10.102-5.488c-2.17-8.086-6.362-26.649-6.362-49.369
	c0-31.292,23.298-32.542,25.9-32.581c1.938,0,3.8-0.75,5.197-2.093c0.208-0.199,21.187-19.977,58-21.967
	c33.359-1.802,59.149,6.661,74.578,24.478c15.709,18.139,20.832,46.019,14.944,80.872c-2.7-0.184-5.784,0.019-8.825,0.594
	l-8.38-20.123c-1.438-3.453-5.208-5.316-8.823-4.372c-0.801,0.209-80.584,20.448-114.202-21.403
	c-2.593-3.229-7.313-3.745-10.544-1.151c-3.229,2.594-3.745,7.315-1.15,10.544c33.965,42.287,102.014,32.345,123.299,27.978
	l6.563,15.758c2.473,5.941,8.799,9.186,15.042,7.716c2.758-0.649,5.595-0.73,6.866-0.478c3.955,0.787,6.937,4.694,6.937,9.089v6.247
	c0,4.566-2.936,8.61-6.83,9.407c-0.77,0.158-1.538,0.209-2.286,0.155c-7.669-0.564-14.808,5.025-16.222,12.726
	c-6.326,34.442-36.342,59.441-71.372,59.441s-65.045-24.999-71.372-59.441C183.211,165.576,176.091,159.989,168.403,160.551z
	 M217.568,327.754c-2.554-0.253-4.835-1.623-6.259-3.758l-33.838-50.758l14.739-14.739l52.815,46.213l-20.583,20.584
	C222.628,327.111,220.125,328.008,217.568,327.754z M246.752,336.928l0.579-13.308l8.667-8.667l8.666,8.667l0.579,13.308H246.752z
	 M300.686,323.996c-1.424,2.135-3.705,3.505-6.259,3.758c-2.557,0.255-5.059-0.644-6.874-2.458l-20.583-20.584l52.815-46.213
	l14.739,14.739L300.686,323.996z"/>
<g>
</g>
<g>
</g>
<g>
</g>
<g>
</g>
<g>
</g>
<g>
</g>
<g>
</g>
<g>
</g>
<g>
</g>
<g>
</g>
<g>
</g>
<g>
</g>
<g>
</g>
<g>
</g>
<g>
</g>
</svg>
